<?xml version="1.0" encoding="UTF-8" standalone="no"?>
<!-- Created with Inkscape (http://www.inkscape.org/) -->

<svg
   xmlns:dc="http://purl.org/dc/elements/1.1/"
   xmlns:cc="http://creativecommons.org/ns#"
   xmlns:rdf="http://www.w3.org/1999/02/22-rdf-syntax-ns#"
   xmlns:svg="http://www.w3.org/2000/svg"
   xmlns="http://www.w3.org/2000/svg"
   xmlns:sodipodi="http://sodipodi.sourceforge.net/DTD/sodipodi-0.dtd"
   xmlns:inkscape="http://www.inkscape.org/namespaces/inkscape"
   version="1.1"
   id="svg3713"
   width="1024"
   height="1024"
   viewBox="0 0 1024 1024"
   sodipodi:docname="1024px-HTML5_logo_and_wordmark.svg"
   inkscape:version="0.92.4 (5da689c313, 2019-01-14)">
  <metadata
     id="metadata3719">
    <rdf:RDF>
      <cc:Work
         rdf:about="">
        <dc:format>image/svg+xml</dc:format>
        <dc:type
           rdf:resource="http://purl.org/dc/dcmitype/StillImage" />
        <dc:title></dc:title>
      </cc:Work>
    </rdf:RDF>
  </metadata>
  <defs
     id="defs3717" />
  <sodipodi:namedview
     pagecolor="#ffffff"
     bordercolor="#666666"
     borderopacity="1"
     objecttolerance="10"
     gridtolerance="10"
     guidetolerance="10"
     inkscape:pageopacity="0"
     inkscape:pageshadow="2"
     inkscape:window-width="1920"
     inkscape:window-height="1017"
     id="namedview3715"
     showgrid="false"
     inkscape:snap-text-baseline="false"
     inkscape:snap-global="true"
     inkscape:snap-nodes="false"
     inkscape:snap-others="true"
     inkscape:zoom="0.83007812"
     inkscape:cx="311.41647"
     inkscape:cy="773.68085"
     inkscape:window-x="-8"
     inkscape:window-y="-8"
     inkscape:window-maximized="1"
     inkscape:current-layer="text3752" />
  <path
     style="fill:#000000;stroke-width:1.20470583"
     d="m 512,914.54637 v -46.97128 l 3.91529,-1.20021 c 2.15342,-0.66011 9.33647,-2.65324 15.96236,-4.42918 6.62588,-1.77594 16.384,-4.45357 21.6847,-5.95031 5.30071,-1.49674 15.05883,-4.21938 21.68471,-6.05033 17.07068,-4.71721 32.19089,-8.92339 43.36941,-12.06464 5.30071,-1.48953 15.05882,-4.20286 21.68471,-6.02961 6.62588,-1.82676 16.384,-4.54599 21.6847,-6.04276 5.30071,-1.49676 15.05883,-4.17856 21.68471,-5.95953 6.62588,-1.78099 12.67296,-3.4318 13.43797,-3.66848 0.833,-0.2577 1.69827,-4.6914 2.15716,-11.0534 0.42144,-5.84272 1.80091,-21.1944 3.06547,-34.11488 1.26457,-12.92047 2.638,-28.37082 3.05204,-34.33411 0.41406,-5.9633 1.77133,-21.14259 3.01614,-33.73177 1.24482,-12.58917 2.60012,-27.76847 3.01176,-33.73176 0.41166,-5.9633 1.75921,-21.14259 2.99457,-33.73177 1.23535,-12.58917 2.59444,-27.76847 3.0202,-33.73176 0.42576,-5.9633 1.80747,-20.87153 3.07046,-33.12941 1.26298,-12.25789 2.30328,-24.59106 2.31175,-27.40706 l 0.0154,-5.12 H 617.41176 512 v -45.77883 -45.77882 h 109.47765 109.47764 l 0.65046,-3.31294 c 0.35775,-1.82212 1.2694,-10.90259 2.02591,-20.17882 0.75649,-9.27624 2.43011,-27.16612 3.71913,-39.7553 1.28901,-12.58917 2.34254,-24.38023 2.34115,-26.20235 l -0.003,-3.31294 H 625.84471 512 v -45.17647 -45.17647 h 148.17882 148.17883 l -0.0208,4.51764 c -0.0121,2.48471 -0.52817,9.39671 -1.1482,15.36 -0.62002,5.9633 -1.70386,17.88989 -2.40852,26.50353 -0.70467,8.61365 -2.33778,27.04565 -3.62914,40.96 -1.29136,13.91436 -3.74339,41.02024 -5.44896,60.2353 -7.13662,80.4018 -9.22538,103.69392 -11.45159,127.69882 -1.29042,13.91435 -2.92639,32.34635 -3.63548,40.96 -0.70909,8.61365 -2.06167,23.52188 -3.00575,33.12941 -0.94408,9.60753 -2.28285,24.51577 -2.97504,33.12941 -0.69217,8.61365 -2.32267,27.31671 -3.6233,41.56236 -1.30064,14.24564 -3.74664,41.35153 -5.43557,60.23529 -1.68892,18.88377 -4.14781,46.26071 -5.46419,60.83765 -1.31638,14.57694 -3.46812,38.40193 -4.78164,52.9444 -1.31356,14.54247 -2.38825,27.58522 -2.38825,28.98386 0,5.96309 3.502,4.74101 -80.11294,27.95666 -5.9633,1.6557 -14.36612,3.97541 -18.67295,5.1549 -4.30682,1.17949 -14.06494,3.89439 -21.6847,6.03312 -7.61977,2.13873 -17.37788,4.84541 -21.68471,6.01488 -4.30682,1.16946 -17.5887,4.88177 -29.51529,8.24958 -11.92659,3.36783 -31.44283,8.86194 -43.36941,12.20917 -11.92659,3.34721 -22.63342,6.38614 -23.79294,6.75317 C 512.12503,961.47808 512,958.73201 512,914.54637 Z"
     id="path3723"
     inkscape:connector-curvature="0" />
  <path
     style="fill:#ff0000;stroke-width:1.20470583"
     d="m 512,699.33176 v -71.68 h 55.41647 c 43.53531,0 55.41435,0.32286 55.40659,1.50589 -0.005,0.82823 -0.53165,6.11388 -1.16936,11.74588 -0.63772,5.632 -1.73888,17.82965 -2.44704,27.10588 -0.70815,9.27624 -2.35041,27.30635 -3.64946,40.06691 -1.29905,12.76057 -2.36191,26.16283 -2.36191,29.78282 v 6.58179 l -6.3247,1.71449 c -3.47859,0.94297 -11.74588,3.14423 -18.37177,4.89168 -6.62588,1.74745 -16.92611,4.49971 -22.88941,6.11612 -5.96329,1.61643 -15.72141,4.24797 -21.6847,5.84789 -5.9633,1.59991 -14.99698,4.05457 -20.07484,5.4548 -5.07787,1.40022 -9.8214,2.54585 -10.54118,2.54585 -0.92712,0 -1.30869,-20.89946 -1.30869,-71.68 z"
     id="path3725"
     inkscape:connector-curvature="0" />
  <path
     style="fill:#ff0000;stroke-width:1.20470583"
     d="M 512.78543,947.31377 C 512.35344,940.25352 512,919.51544 512,901.22915 v -33.24781 l 53.91059,-14.94873 c 29.65082,-8.22179 71.24055,-19.74901 92.4216,-25.61603 21.18107,-5.86703 38.9656,-11.1219 39.52117,-11.67747 0.55559,-0.55559 3.69941,-31.0404 6.98628,-67.74405 3.28688,-36.70364 8.67787,-96.64286 11.98001,-133.19828 3.30213,-36.55541 6.00388,-69.218 6.00388,-72.58353 v -6.11913 H 617.41176 512 v -45.77883 -45.77882 h 109.60528 109.60529 l 0.63219,-2.71059 c 0.94587,-4.05545 7.84665,-78.56522 7.84665,-84.72252 v -5.32924 H 625.84471 512 v -45.17647 -45.17647 h 148.23865 148.23864 l -0.69594,6.92706 c -0.38276,3.80988 -6.11475,67.64423 -12.73775,141.85411 -13.14522,147.29036 -19.31695,216.26551 -33.05908,369.46805 -4.97384,55.45025 -9.04334,102.98235 -9.04334,105.62688 0,2.64465 -0.80445,5.61272 -1.78775,6.59601 -2.70451,2.70452 -14.83526,6.40183 -83.74637,25.52498 -34.78588,9.65324 -83.37022,23.21707 -107.9652,30.14183 -24.59498,6.92477 -44.97754,12.59049 -45.29458,12.59049 -0.31703,0 -0.92987,-5.77657 -1.36185,-12.83682 z"
     id="path3727"
     inkscape:connector-curvature="0" />
  <path
     style="fill:#ff0000;stroke-width:1.20470583"
     d="m 513.85088,953.82588 c -0.3884,-2.816 -0.8282,-23.20737 -0.97735,-45.31414 l -0.27118,-40.19416 87.94353,-24.47017 c 48.36894,-13.45858 90.10838,-25.24098 92.7543,-26.18311 4.37358,-1.55729 4.88937,-2.19483 5.67582,-7.01568 2.02448,-12.40988 22.38667,-237.68664 23.48237,-259.79686 l 0.73133,-14.75764 H 617.59485 512 v -45.77249 -45.77249 l 109.91287,-0.30751 109.91287,-0.30751 0.86093,-6.02353 c 1.701,-11.90115 7.00274,-71.52454 7.00274,-78.7528 v -7.38367 H 625.84471 512 v -45.17647 -45.17647 h 148.10308 148.10309 l -0.56262,3.91529 c -0.81584,5.67753 -47.82285,532.68158 -54.58141,611.92203 -0.60429,7.08512 -1.42635,13.41212 -1.82677,14.06001 -0.8716,1.41029 -16.76284,6.70659 -39.85655,13.28357 -43.12546,12.28192 -194.5233,54.3438 -195.60546,54.3438 -0.66897,0 -1.53409,-2.304 -1.92248,-5.12 z"
     id="path3729"
     inkscape:connector-curvature="0" />
  <path
     style="fill:#ff0000;stroke-width:1.20470583"
     d="m 513.82512,955.03059 c -0.38141,-2.15341 -0.81256,-22.5594 -0.95812,-45.34663 l -0.26465,-41.43131 83.12471,-23.15132 c 98.00216,-27.29487 99.92451,-27.86081 101.63387,-29.92046 1.58394,-1.90854 3.9796,-24.82029 12.74299,-121.87263 9.57946,-106.09024 12.71961,-143.29053 12.71961,-150.68521 v -6.52891 H 617.41176 512 v -45.77249 -45.77249 l 109.92439,-0.30751 109.92439,-0.30751 0.90919,-7.22824 c 1.83084,-14.55541 6.93144,-72.36047 6.93144,-78.55383 v -6.37793 H 625.84471 512 v -45.17647 -45.17647 h 148.19306 148.19307 l -0.64926,4.51764 c -0.35709,2.48471 -5.77439,61.98212 -12.03844,132.21647 -6.26406,70.23436 -17.33451,194.3793 -24.601,275.87765 -7.2665,81.49835 -14.3436,162.00282 -15.7269,178.89882 -1.38331,16.896 -2.79916,32.52304 -3.14633,34.72675 -0.72644,4.61118 -2.44423,5.53281 -20.93418,11.23172 -15.92586,4.90861 -213.72657,60.05565 -215.40685,60.05565 -0.75052,0 -1.67664,-1.76188 -2.05805,-3.91529 z"
     id="path3731"
     inkscape:connector-curvature="0" />
  <path
     style="fill:#ff0000;stroke-width:1.20470583"
     d="m 513.8166,955.03059 c -0.3861,-2.15341 -0.81725,-22.59037 -0.95812,-45.41546 l -0.25613,-41.50018 25.29883,-7.02425 c 54.13815,-15.03153 146.08195,-40.77175 152.10137,-42.58168 3.48257,-1.04716 6.83025,-2.835 7.43928,-3.97299 1.4285,-2.66916 5.63781,-43.92741 13.90447,-136.28662 9.08757,-101.53094 11.45944,-129.746 11.46903,-136.43294 l 0.008,-5.72235 H 617.41176 512 v -45.77249 -45.77249 l 109.92343,-0.30751 109.92343,-0.30751 1.46132,-13.25177 c 2.16446,-19.62819 6.38123,-68.60623 6.38123,-74.11847 v -4.78976 H 625.84471 512 v -45.17647 -45.17647 h 148.25264 148.25264 l -0.70097,5.12 c -0.38553,2.816 -4.74384,50.38682 -9.68516,105.71294 -23.09936,258.63559 -38.16056,428.36388 -41.53146,468.02823 -2.02718,23.85318 -3.98104,45.17639 -4.34189,47.38492 -0.53988,3.30422 -1.55001,4.41073 -5.70272,6.24679 -7.31395,3.23378 -226.38232,65.03182 -230.53183,65.03182 -0.82096,0 -1.80856,-1.76188 -2.19465,-3.91529 z"
     id="path3733"
     inkscape:connector-curvature="0" />
  <path
     style="fill:#000000;stroke-width:1.20470583"
     d="m 501.76,1020.7949 c -6.67023,-2.0717 -19.08148,-5.591 -37.34588,-10.5899 -6.62588,-1.8135 -16.65506,-4.5833 -22.28706,-6.1552 -5.632,-1.5719 -15.39012,-4.25552 -21.68471,-5.96365 -6.29459,-1.70814 -14.96847,-4.11984 -19.27529,-5.35934 -4.30682,-1.23951 -14.06494,-3.9574 -21.68471,-6.03976 -17.71487,-4.8412 -33.44398,-9.18712 -43.36941,-11.98288 -4.30682,-1.21313 -13.25176,-3.69441 -19.87765,-5.51396 -28.89164,-7.934 -34.25824,-9.41815 -43.36941,-11.99395 -5.3007,-1.49854 -15.05882,-4.21976 -21.6847,-6.04714 -6.62589,-1.82738 -16.4624,-4.61549 -21.85893,-6.19581 -5.39652,-1.58032 -10.56596,-2.87331 -11.48764,-2.87331 -1.72555,0 -4.26934,-21.16927 -7.06817,-58.82078 -0.65635,-8.82955 -1.95649,-23.19567 -2.88922,-31.9247 -0.93272,-8.72905 -2.0374,-21.02111 -2.45484,-27.3157 -0.41744,-6.29458 -1.77818,-21.74494 -3.02388,-34.33411 -1.24569,-12.58918 -2.5968,-27.76847 -3.00247,-33.73177 -0.40566,-5.96329 -1.75837,-21.14259 -3.00602,-33.73176 -1.24766,-12.58918 -2.60763,-28.03953 -3.02218,-34.33412 -0.41454,-6.29459 -1.52686,-18.60021 -2.47183,-27.34584 -0.94497,-8.74562 -2.266,-23.3828 -2.93564,-32.52706 -0.66963,-9.14426 -2.28954,-28.0104 -3.59979,-41.92475 -1.31026,-13.91435 -3.75901,-40.74917 -5.44167,-59.63294 -1.68266,-18.88376 -4.39441,-49.24235 -6.02611,-67.46353 -1.63169,-18.22118 -4.35608,-48.85082 -6.05419,-68.06588 -1.6981,-19.21506 -4.14827,-46.32094 -5.44482,-60.2353 -1.29654,-13.91435 -2.90512,-32.61741 -3.57463,-41.56235 -0.66951,-8.94494 -1.76337,-21.14259 -2.4308,-27.10588 -1.22205,-10.91857 -4.77818,-53.60361 -4.79244,-57.52471 -0.007,-2.00317 18.00262,-2.10823 361.40409,-2.10823 h 361.41176 l -0.0124,2.71059 c -0.0165,3.60722 -1.85026,25.80353 -4.75234,57.5247 -1.3033,14.24565 -3.76116,41.62259 -5.46193,60.83765 -1.70077,19.21506 -4.40754,49.57365 -6.01505,67.46353 -3.14667,35.01905 -7.36668,82.29861 -12.15066,136.13176 -1.6487,18.55247 -4.06942,45.11624 -5.37938,59.03059 -1.30995,13.91435 -2.90533,32.34635 -3.54526,40.96 -0.63994,8.61365 -1.95657,23.25083 -2.92583,32.52706 -0.96927,9.27624 -2.11197,22.016 -2.53936,28.31059 -0.42738,6.29459 -1.79296,21.74494 -3.03463,34.33412 -1.24167,12.58917 -2.58883,27.76847 -2.99368,33.73176 -0.40487,5.9633 -1.49626,18.16094 -2.42532,27.10588 -0.92904,8.94494 -2.24424,23.58212 -2.92265,32.52706 -0.6784,8.94494 -2.31083,27.91906 -3.62761,42.16471 -1.31677,14.24565 -3.56255,38.64094 -4.99064,54.21176 -1.42807,15.57083 -2.82202,28.56274 -3.09765,28.87092 -0.27563,0.30818 -2.77888,1.17246 -5.56277,1.92062 -2.7839,0.74816 -10.21175,2.7919 -16.50634,4.54166 -6.29459,1.74975 -16.32377,4.53712 -22.28706,6.19417 -5.96329,1.65706 -15.72141,4.38417 -21.68471,6.06024 -9.97722,2.80425 -18.21376,5.08147 -40.96,11.32452 -4.63811,1.273 -14.66729,4.06739 -22.28705,6.20976 -7.61977,2.14236 -17.37789,4.84037 -21.68471,5.99556 -4.30682,1.15521 -14.06494,3.85905 -21.68471,6.00856 -21.18465,5.9761 -39.87762,11.14774 -65.65647,18.16484 -4.63811,1.2625 -13.04094,3.5852 -18.67294,5.1616 -40.17979,11.2466 -39.7814,11.1782 -48.79059,8.3801 z m 48.43855,-69.59508 c 19.73997,-5.58551 67.33369,-18.89009 105.7638,-29.56574 102.62942,-28.5098 96.50979,-26.30222 97.49112,-35.16865 0.39128,-3.53528 5.31322,-58.20002 10.93765,-121.47719 10.31813,-116.08338 33.74344,-377.77686 40.37693,-451.06675 1.97428,-21.81283 3.5896,-42.54883 3.5896,-46.08 v -6.42031 H 660.17882 512 v 45.17647 45.17647 H 398.2264 c -67.50328,0 -114.05068,0.44829 -114.45488,1.1023 -0.37469,0.60627 0.64885,14.83686 2.27454,31.62353 1.62569,16.78668 4.3623,46.24264 6.08135,65.4577 4.67583,52.26522 8.78771,97.45529 12.11268,133.12 1.63695,17.55859 3.10812,34.63529 3.26928,37.94823 l 0.29298,6.02353 102.07995,0.30797 102.07994,0.30799 0.32006,71.22446 c 0.26458,58.87769 0.0383,71.33255 -1.30516,71.84789 -0.89385,0.34287 -5.50185,-0.50758 -10.24,-1.8899 -4.73813,-1.38231 -13.7649,-3.88532 -20.05949,-5.56223 -6.29459,-1.67692 -16.32377,-4.36734 -22.28706,-5.97872 -5.9633,-1.61137 -16.53459,-4.40405 -23.49177,-6.20594 -6.95717,-1.8019 -15.1115,-4.02844 -18.12071,-4.94787 l -5.47132,-1.67169 -2.69331,-28.59833 c -1.48133,-15.72909 -3.01274,-31.98657 -3.40315,-36.12775 l -0.70984,-7.52941 h -46.22236 -46.22237 l 0.59762,6.92706 c 0.32868,3.80988 1.66231,18.31153 2.96361,32.22588 1.30131,13.91436 2.94174,32.61742 3.6454,41.56236 0.70367,8.94494 2.07232,23.49829 3.04144,32.34078 0.96913,8.8425 1.76205,18.63253 1.76205,21.75563 0,3.1231 0.67765,6.50616 1.50588,7.51788 0.82824,1.01174 8.0113,3.60141 15.96236,5.75481 7.95106,2.15341 17.98023,4.93544 22.28706,6.18227 4.30682,1.24684 12.9807,3.69264 19.27529,5.43513 6.29459,1.74249 15.78165,4.40018 21.08235,5.90598 5.30071,1.50581 15.05883,4.24061 21.68471,6.07734 6.62588,1.83674 16.384,4.56412 21.68471,6.06086 5.3007,1.49674 15.05882,4.17353 21.6847,5.94843 6.62588,1.77491 15.29977,4.20809 19.2753,5.40708 3.97552,1.19899 10.88752,3.11338 15.36,4.2542 L 512,867.65579 v 46.04662 c 0,40.29561 0.30214,47.65288 1.95698,47.65288 0.1929,0 16.50161,-4.56996 36.24157,-10.15547 z"
     id="path3735"
     inkscape:connector-curvature="0" />
  <path
     style="fill:#000000;stroke-width:1.20470583"
     d="m 392.73412,534.40034 c 0,-0.93158 -1.03721,-11.90946 -2.30491,-24.3953 -1.2677,-12.48583 -2.91716,-30.56222 -3.66546,-40.16975 -0.74831,-9.60753 -1.66884,-19.23011 -2.04564,-21.38353 l -0.68508,-3.91529 H 448.01652 512 v 45.77882 45.77883 h -59.63294 c -50.43137,0 -59.63294,-0.26136 -59.63294,-1.69378 z"
     id="path3737"
     inkscape:connector-curvature="0" />
  <g
     aria-label="WEB"
     style="font-style:normal;font-weight:normal;font-size:40px;line-height:1.25;font-family:sans-serif;letter-spacing:0px;word-spacing:0px;fill:#000000;fill-opacity:1;stroke:none"
     id="text3752">
    <path
       d="m 277.98227,33.508896 h 34.59375 l 24.1875,101.718754 24,-101.718754 h 34.78125 l 24,101.718754 24.1875,-101.718754 h 34.3125 l -33,139.968754 h -41.625 L 378.01352,67.071396 352.88852,173.47765 h -41.625 z"
       style="font-style:normal;font-variant:normal;font-weight:bold;font-stretch:normal;font-size:192px;font-family:sans-serif;-inkscape-font-specification:'sans-serif, Bold';font-variant-ligatures:normal;font-variant-caps:normal;font-variant-numeric:normal;font-feature-settings:normal;text-align:start;writing-mode:lr-tb;text-anchor:start;fill:#d40000"
       id="path3754" />
    <path
       d="m 501.76352,33.508896 h 97.40625 v 27.28125 h -61.3125 v 26.0625 h 57.65625 V 114.1339 h -57.65625 v 32.0625 h 63.375 v 27.28125 h -99.46875 z"
       style="font-style:normal;font-variant:normal;font-weight:bold;font-stretch:normal;font-size:192px;font-family:sans-serif;-inkscape-font-specification:'sans-serif, Bold';font-variant-ligatures:normal;font-variant-caps:normal;font-variant-numeric:normal;font-feature-settings:normal;text-align:start;writing-mode:lr-tb;text-anchor:start;fill:#ff6600"
       id="path3756" />
    <path
       d="m 689.07602,87.696396 q 8.53125,0 12.9375,-3.75 4.40625,-3.75 4.40625,-11.0625 0,-7.21875 -4.40625,-10.96875 -4.40625,-3.84375 -12.9375,-3.84375 h -19.96875 v 29.625 z m 1.21875,61.218754 q 10.875,0 16.3125,-4.59375 5.53125,-4.59375 5.53125,-13.875 0,-9.09375 -5.4375,-13.59375 -5.4375,-4.59375 -16.40625,-4.59375 h -21.1875 v 36.65625 z m 33.5625,-50.343754 q 11.625,3.375004 18,12.468754 6.375,9.09375 6.375,22.3125 0,20.25 -13.6875,30.1875 -13.6875,9.9375 -41.625,9.9375 H 633.01352 V 33.508896 h 54.1875 q 29.15625,0 42.1875,8.8125 13.125,8.8125 13.125,28.21875 0,10.21875 -4.78125,17.4375 -4.78125,7.125 -13.875,10.59375 z"
       style="font-style:normal;font-variant:normal;font-weight:bold;font-stretch:normal;font-size:192px;font-family:sans-serif;-inkscape-font-specification:'sans-serif, Bold';font-variant-ligatures:normal;font-variant-caps:normal;font-variant-numeric:normal;font-feature-settings:normal;text-align:start;writing-mode:lr-tb;text-anchor:start;fill:#99ff55"
       id="path3758" />
  </g>
</svg>
